<svg width="240" height="180" viewBox="0 0 240 180" fill="none" xmlns="http://www.w3.org/2000/svg">
  <defs>
    <linearGradient id="body" x1="49" y1="39" x2="187" y2="148" gradientUnits="userSpaceOnUse">
      <stop stop-color="#B5763A"/>
      <stop offset="1" stop-color="#77451E"/>
    </linearGradient>
    <linearGradient id="belly" x1="107" y1="70" x2="173" y2="130" gradientUnits="userSpaceOnUse">
      <stop stop-color="#FFD7A0"/>
      <stop offset="1" stop-color="#DA9851"/>
    </linearGradient>
    <filter id="shadow" x="0" y="20" width="238" height="150" filterUnits="userSpaceOnUse" color-interpolation-filters="sRGB">
      <feDropShadow dx="0" dy="10" stdDeviation="8" flood-color="#3E220E" flood-opacity="0.32"/>
    </filter>
  </defs>
  <g filter="url(#shadow)">
    <path d="M26 111C18 93 20 75 34 65C48 54 71 56 84 70L92 78L67 151C47 146 33 130 26 111Z" fill="#68401B"/>
    <path d="M46 115C46 78 78 49 122 49C165 49 202 75 202 111C202 143 169 160 121 160C75 160 46 145 46 115Z" fill="url(#body)"/>
    <path d="M88 75C100 66 119 60 140 60C170 60 193 76 198 99C186 94 171 92 156 92C122 92 96 104 83 121C78 108 80 87 88 75Z" fill="#D39351" fill-opacity=".56"/>
    <ellipse cx="149" cy="111" rx="42" ry="33" fill="url(#belly)"/>
    <ellipse cx="109" cy="72" rx="12" ry="13" fill="#A86734"/>
    <ellipse cx="134" cy="64" rx="13" ry="14" fill="#A86734"/>
    <ellipse cx="109" cy="72" rx="6" ry="6" fill="#F6B3B8"/>
    <ellipse cx="134" cy="64" rx="6" ry="6" fill="#F6B3B8"/>
    <ellipse cx="160" cy="88" rx="9.5" ry="12" fill="#171212"/>
    <ellipse cx="182" cy="91" rx="9.5" ry="12" fill="#171212"/>
    <circle cx="162" cy="84" r="2.4" fill="#fff"/>
    <circle cx="184" cy="87" r="2.4" fill="#fff"/>
    <path d="M178 107C180 111 179 116 175 119C170 122 163 121 157 119C151 116 150 110 154 107C158 104 165 104 171 104C173 104 176 105 178 107Z" fill="#2A1A16"/>
    <path d="M162 121C168 124 176 124 182 120" stroke="#2A1A16" stroke-width="5" stroke-linecap="round"/>
    <path d="M195 116L219 124" stroke="#5E3118" stroke-width="6" stroke-linecap="round"/>
    <path d="M189 132L211 147" stroke="#5E3118" stroke-width="6" stroke-linecap="round"/>
    <path d="M98 151L120 155" stroke="#5E3118" stroke-width="9" stroke-linecap="round"/>
    <path d="M135 157L158 163" stroke="#5E3118" stroke-width="9" stroke-linecap="round"/>
  </g>
</svg>
