<svg width="240" height="180" viewBox="0 0 240 180" xmlns="http://www.w3.org/2000/svg">
  <defs>
    <linearGradient id="baseTail" x1="28" y1="106" x2="80" y2="144" gradientUnits="userSpaceOnUse">
      <stop offset="0" stop-color="#885024"/>
      <stop offset="1" stop-color="#5A3013"/>
    </linearGradient>
    <linearGradient id="baseBody" x1="74" y1="70" x2="180" y2="136" gradientUnits="userSpaceOnUse">
      <stop offset="0" stop-color="#C97F38"/>
      <stop offset="0.56" stop-color="#A55B27"/>
      <stop offset="1" stop-color="#733917"/>
    </linearGradient>
    <linearGradient id="baseBelly" x1="130" y1="94" x2="182" y2="138" gradientUnits="userSpaceOnUse">
      <stop offset="0" stop-color="#FAE8C1"/>
      <stop offset="1" stop-color="#DEB06E"/>
    </linearGradient>
    <linearGradient id="baseMuzzle" x1="170" y1="84" x2="220" y2="122" gradientUnits="userSpaceOnUse">
      <stop offset="0" stop-color="#FFF0CC"/>
      <stop offset="1" stop-color="#E4BE80"/>
    </linearGradient>
  </defs>
  <ellipse cx="114" cy="137" rx="78" ry="16" fill="#1D110A" opacity="0.16"/>
  <g transform="rotate(-4 126 104)">
    <path d="M30 112C25 92 37 76 60 72C77 69 92 77 99 91C106 105 101 120 82 130C65 139 36 132 30 112Z" fill="url(#baseTail)" stroke="#2B1509" stroke-width="6" stroke-linejoin="round"/>
    <path d="M38 111L86 84" stroke="#4D2710" stroke-width="5" stroke-linecap="round"/>
    <path d="M43 123L90 96" stroke="#4D2710" stroke-width="5" stroke-linecap="round"/>
    <path d="M55 131L95 107" stroke="#4D2710" stroke-width="5" stroke-linecap="round"/>
    <path d="M78 98C90 70 126 58 163 67C191 74 209 94 209 116C209 142 184 153 146 152C102 151 72 138 63 114C61 108 69 101 78 98Z" fill="url(#baseBody)" stroke="#2B1509" stroke-width="6" stroke-linejoin="round"/>
    <path d="M132 102C151 89 181 93 196 109C197 132 178 144 151 145C126 146 108 135 98 120C101 111 114 106 132 102Z" fill="url(#baseBelly)" stroke="#A56A27" stroke-width="4" stroke-linejoin="round"/>
    <circle cx="127" cy="71" r="11" fill="#995725" stroke="#2B1509" stroke-width="5"/>
    <circle cx="149" cy="69" r="12" fill="#995725" stroke="#2B1509" stroke-width="5"/>
    <path d="M111 118C121 112 136 111 146 117C139 128 123 130 111 118Z" fill="#6A3A1B" opacity="0.42"/>
    <path d="M149 109C157 105 169 106 179 114C172 123 156 124 149 109Z" fill="#6A3A1B" opacity="0.42"/>
    <path d="M170 85C188 78 210 85 218 101C225 117 217 131 198 135C178 139 160 129 158 112C156 99 160 90 170 85Z" fill="url(#baseMuzzle)" stroke="#2B1509" stroke-width="6" stroke-linejoin="round"/>
    <ellipse cx="188" cy="103" rx="16" ry="20" fill="#FFFFFF"/>
    <ellipse cx="193" cy="106" rx="8" ry="11" fill="#160D08"/>
    <circle cx="196" cy="101" r="2.8" fill="#FFFFFF"/>
    <ellipse cx="215" cy="106" rx="8" ry="6.5" fill="#3A2112"/>
    <rect x="208" y="109" width="7" height="16" rx="2.4" fill="#FFF9F0" stroke="#2B1509" stroke-width="3"/>
    <rect x="215" y="109" width="7" height="15" rx="2.4" fill="#FFF9F0" stroke="#2B1509" stroke-width="3"/>
    <path d="M200 116C205 120 212 120 218 116" fill="none" stroke="#2B1509" stroke-width="4" stroke-linecap="round"/>
    <path d="M214 100L227 98" stroke="#2B1509" stroke-width="3" stroke-linecap="round"/>
    <path d="M214 107L229 107" stroke="#2B1509" stroke-width="3" stroke-linecap="round"/>
    <path d="M213 114L226 118" stroke="#2B1509" stroke-width="3" stroke-linecap="round"/>
  </g>
</svg>
