<svg width="240" height="180" viewBox="0 0 240 180" fill="none" xmlns="http://www.w3.org/2000/svg">
  <defs>
    <linearGradient id="fallBody" x1="62" y1="59" x2="176" y2="141" gradientUnits="userSpaceOnUse">
      <stop stop-color="#B3743F"/>
      <stop offset="1" stop-color="#673918"/>
    </linearGradient>
  </defs>
  <ellipse cx="58" cy="129" rx="24" ry="12" fill="#553114" opacity=".24"/>
  <path d="M36 111C26 99 28 82 39 72C52 61 69 62 85 75L97 85L82 155C58 150 41 137 36 111Z" fill="#5E3517"/>
  <path d="M45 99L82 118" stroke="#2D1607" stroke-width="6" stroke-linecap="round"/>
  <ellipse cx="126" cy="104" rx="60" ry="42" fill="url(#fallBody)"/>
  <ellipse cx="156" cy="106" rx="36" ry="29" fill="#F0D4AF"/>
  <circle cx="117" cy="68" r="12" fill="#A66534"/>
  <circle cx="139" cy="64" r="13" fill="#A66534"/>
  <circle cx="117" cy="68" r="6" fill="#F4B4BF"/>
  <circle cx="139" cy="64" r="6" fill="#F4B4BF"/>
  <ellipse cx="173" cy="94" rx="24" ry="20" fill="#F3D8B4"/>
  <ellipse cx="188" cy="96" rx="7" ry="9" fill="#171112"/>
  <circle cx="189" cy="92.5" r="2" fill="#fff"/>
  <ellipse cx="205" cy="101" rx="7" ry="6" fill="#2B1810"/>
  <rect x="201" y="106" width="7" height="15" rx="2.2" fill="#FFF3D7"/>
  <rect x="209" y="106" width="7" height="15" rx="2.2" fill="#FFF3D7"/>
  <path d="M205 99L221 104" stroke="#2B1810" stroke-width="3" stroke-linecap="round"/>
  <path d="M204 103L222 109" stroke="#2B1810" stroke-width="3" stroke-linecap="round"/>
  <path d="M189 111C194 108 200 108 205 111" stroke="#2B1810" stroke-width="4.6" stroke-linecap="round"/>
  <path d="M116 144L136 147" stroke="#6A3C1B" stroke-width="9" stroke-linecap="round"/>
  <path d="M149 145L171 151" stroke="#6A3C1B" stroke-width="9" stroke-linecap="round"/>
</svg>
