<svg width="240" height="180" viewBox="0 0 240 180" xmlns="http://www.w3.org/2000/svg">
  <defs>
    <linearGradient id="fallTail" x1="34" y1="114" x2="86" y2="150" gradientUnits="userSpaceOnUse">
      <stop offset="0" stop-color="#855022"/>
      <stop offset="1" stop-color="#582F12"/>
    </linearGradient>
    <linearGradient id="fallBody" x1="76" y1="76" x2="182" y2="146" gradientUnits="userSpaceOnUse">
      <stop offset="0" stop-color="#BC7633"/>
      <stop offset="0.56" stop-color="#9A5424"/>
      <stop offset="1" stop-color="#693514"/>
    </linearGradient>
    <linearGradient id="fallBelly" x1="130" y1="104" x2="182" y2="146" gradientUnits="userSpaceOnUse">
      <stop offset="0" stop-color="#F5E0B7"/>
      <stop offset="1" stop-color="#D4A86A"/>
    </linearGradient>
    <linearGradient id="fallMuzzle" x1="170" y1="96" x2="221" y2="136" gradientUnits="userSpaceOnUse">
      <stop offset="0" stop-color="#FBEACA"/>
      <stop offset="1" stop-color="#DEB77A"/>
    </linearGradient>
  </defs>
  <ellipse cx="116" cy="144" rx="82" ry="15" fill="#1D110A" opacity="0.15"/>
  <g transform="rotate(18 124 108)">
    <path d="M33 113C28 93 40 77 63 72C80 69 95 78 103 92C111 107 105 123 86 133C68 142 39 135 33 113Z" fill="url(#fallTail)" stroke="#2B1509" stroke-width="6" stroke-linejoin="round"/>
    <path d="M41 112L90 84" stroke="#4D2710" stroke-width="5" stroke-linecap="round"/>
    <path d="M47 124L94 97" stroke="#4D2710" stroke-width="5" stroke-linecap="round"/>
    <path d="M60 132L99 109" stroke="#4D2710" stroke-width="5" stroke-linecap="round"/>
    <path d="M80 99C92 72 128 60 166 69C194 76 212 96 212 119C212 145 186 156 146 154C101 152 71 138 63 114C61 107 70 101 80 99Z" fill="url(#fallBody)" stroke="#2B1509" stroke-width="6" stroke-linejoin="round"/>
    <path d="M132 108C151 96 181 99 197 115C197 138 177 149 149 149C124 149 107 139 97 124C101 115 114 110 132 108Z" fill="url(#fallBelly)" stroke="#A56A27" stroke-width="4" stroke-linejoin="round"/>
    <circle cx="127" cy="73" r="11" fill="#945424" stroke="#2B1509" stroke-width="5"/>
    <circle cx="149" cy="70" r="12" fill="#945424" stroke="#2B1509" stroke-width="5"/>
    <path d="M106 133C116 127 131 127 143 132C137 142 120 144 106 133Z" fill="#6A3A1B" opacity="0.42"/>
    <path d="M150 132C160 127 176 128 186 136C178 145 162 145 150 132Z" fill="#6A3A1B" opacity="0.42"/>
    <path d="M170 94C188 88 209 95 217 111C224 127 217 141 197 145C178 149 160 140 158 123C156 110 160 99 170 94Z" fill="url(#fallMuzzle)" stroke="#2B1509" stroke-width="6" stroke-linejoin="round"/>
    <ellipse cx="188" cy="112" rx="15" ry="19" fill="#FFFFFF"/>
    <ellipse cx="193" cy="115" rx="7.5" ry="10.5" fill="#160D08"/>
    <circle cx="195" cy="111" r="2.6" fill="#FFFFFF"/>
    <ellipse cx="215" cy="115" rx="8" ry="6.5" fill="#3A2112"/>
    <rect x="208" y="118" width="7" height="15" rx="2.4" fill="#FFF9F0" stroke="#2B1509" stroke-width="3"/>
    <rect x="215" y="118" width="7" height="14" rx="2.4" fill="#FFF9F0" stroke="#2B1509" stroke-width="3"/>
    <path d="M199 122C204 119 212 119 218 123" fill="none" stroke="#2B1509" stroke-width="4" stroke-linecap="round"/>
    <path d="M214 109L228 108" stroke="#2B1509" stroke-width="3" stroke-linecap="round"/>
    <path d="M214 116L229 118" stroke="#2B1509" stroke-width="3" stroke-linecap="round"/>
    <path d="M213 123L226 129" stroke="#2B1509" stroke-width="3" stroke-linecap="round"/>
  </g>
</svg>
