<svg width="240" height="180" viewBox="0 0 240 180" xmlns="http://www.w3.org/2000/svg">
  <defs>
    <linearGradient id="tailFill" x1="28" y1="90" x2="104" y2="146" gradientUnits="userSpaceOnUse">
      <stop offset="0" stop-color="#995925"/>
      <stop offset="1" stop-color="#5B3114"/>
    </linearGradient>
    <linearGradient id="bodyFill" x1="74" y1="60" x2="214" y2="158" gradientUnits="userSpaceOnUse">
      <stop offset="0" stop-color="#C87D36"/>
      <stop offset="0.58" stop-color="#A35927"/>
      <stop offset="1" stop-color="#6D3517"/>
    </linearGradient>
    <linearGradient id="bellyFill" x1="104" y1="106" x2="188" y2="158" gradientUnits="userSpaceOnUse">
      <stop offset="0" stop-color="#F9E8C4"/>
      <stop offset="1" stop-color="#DEB06D"/>
    </linearGradient>
    <linearGradient id="muzzleFill" x1="160" y1="84" x2="220" y2="132" gradientUnits="userSpaceOnUse">
      <stop offset="0" stop-color="#FFF2D0"/>
      <stop offset="1" stop-color="#E5BF84"/>
    </linearGradient>
  </defs>
  <ellipse cx="122" cy="145" rx="81" ry="14" fill="#130A05" opacity="0.16"/>
  <g transform="rotate(7 126 104)">
    <path d="M29 111C23 89 35 71 59 67C84 62 103 76 106 99C109 121 96 137 72 142C49 147 34 134 29 111Z" fill="url(#tailFill)" stroke="#2A1409" stroke-width="6" stroke-linejoin="round"/>
    <path d="M37 98L96 79" stroke="#4F2811" stroke-width="4.5" stroke-linecap="round"/>
    <path d="M35 114L97 96" stroke="#4F2811" stroke-width="4.5" stroke-linecap="round"/>
    <path d="M45 130L98 112" stroke="#4F2811" stroke-width="4.5" stroke-linecap="round"/>
    <path d="M64 104C65 75 95 56 141 56C188 56 223 78 225 110C227 141 198 158 145 158C94 158 62 138 64 104Z" fill="url(#bodyFill)" stroke="#2A1409" stroke-width="6" stroke-linejoin="round"/>
    <path d="M84 126C92 108 113 96 138 94C162 92 183 101 198 117C194 142 169 156 136 156C110 156 88 146 78 131C76 128 77 126 84 126Z" fill="url(#bellyFill)" stroke="#A56727" stroke-width="4" stroke-linejoin="round"/>
    <circle cx="147" cy="64" r="11" fill="#9D5A27" stroke="#2A1409" stroke-width="5"/>
    <circle cx="171" cy="62" r="12" fill="#9D5A27" stroke="#2A1409" stroke-width="5"/>
    <path d="M154 85C170 74 194 76 211 91C223 103 223 122 211 134C196 146 169 147 154 137C145 131 142 116 144 104C145 95 149 89 154 85Z" fill="url(#muzzleFill)" stroke="#2A1409" stroke-width="6" stroke-linejoin="round"/>
    <ellipse cx="184" cy="100" rx="12" ry="15" fill="#FFFFFF"/>
    <ellipse cx="188" cy="103" rx="6.6" ry="8.4" fill="#160D08"/>
    <circle cx="191" cy="99" r="2.3" fill="#FFFFFF"/>
    <ellipse cx="214" cy="105" rx="7.6" ry="6" fill="#3A2112"/>
    <rect x="204" y="113" width="8" height="17" rx="2.6" fill="#FFFCF5" stroke="#2A1409" stroke-width="3"/>
    <rect x="212" y="113" width="8" height="16" rx="2.6" fill="#FFFCF5" stroke="#2A1409" stroke-width="3"/>
    <path d="M196 121C202 126 210 126 217 121" fill="none" stroke="#2A1409" stroke-width="4" stroke-linecap="round"/>
    <path d="M210 100L222 98" stroke="#2A1409" stroke-width="3" stroke-linecap="round"/>
    <path d="M211 107L225 107" stroke="#2A1409" stroke-width="3" stroke-linecap="round"/>
    <path d="M209 114L222 118" stroke="#2A1409" stroke-width="3" stroke-linecap="round"/>
    <path d="M102 131C112 123 128 123 140 129C133 141 116 143 102 131Z" fill="#613117" opacity="0.52"/>
    <path d="M152 129C163 123 179 124 191 133C183 143 167 143 152 129Z" fill="#613117" opacity="0.52"/>
    <path d="M71 94C82 73 108 61 135 61" fill="none" stroke="#E5A654" stroke-width="10" stroke-linecap="round" opacity="0.22"/>
  </g>
</svg>
