<svg xmlns="http://www.w3.org/2000/svg" viewBox="0 0 512 512" role="img" aria-label="Aurora Beaver">
  <defs>
    <linearGradient id="auroraBg" x1="0%" y1="0%" x2="100%" y2="100%">
      <stop offset="0%" stop-color="#06111f"/>
      <stop offset="55%" stop-color="#14396f"/>
      <stop offset="100%" stop-color="#1acdb6"/>
    </linearGradient>
    <linearGradient id="auroraGlow" x1="0%" y1="0%" x2="100%" y2="0%">
      <stop offset="0%" stop-color="#8cf7ff"/>
      <stop offset="50%" stop-color="#b39cff"/>
      <stop offset="100%" stop-color="#7dffbc"/>
    </linearGradient>
  </defs>
  <rect width="512" height="512" rx="42" fill="url(#auroraBg)"/>
  <path d="M80 120c64-48 124-54 180-18 44 28 72 24 172-18-22 62-58 99-108 111 48 15 92 18 132 8-48 56-100 78-156 66-58-12-112-2-162 30-6-72 12-132 54-179-38 16-76 16-112 0z" fill="url(#auroraGlow)" opacity=".68"/>
  <ellipse cx="250" cy="274" rx="132" ry="104" fill="#4d2e1b"/>
  <ellipse cx="314" cy="240" rx="72" ry="68" fill="#6a4325"/>
  <circle cx="336" cy="228" r="13" fill="#fff"/>
  <circle cx="339" cy="228" r="7" fill="#0a1023"/>
  <ellipse cx="365" cy="245" rx="20" ry="14" fill="#2e170d"/>
  <path d="M209 188c-14-38-44-54-74-45 16 36 36 57 60 63z" fill="#5b341d"/>
  <path d="M162 302c-16 16-24 42-24 76 36-10 63-31 81-63z" fill="#2d2015"/>
  <path d="M188 340c44 42 112 44 203 8-43 70-122 97-238 83 2-42 14-72 35-91z" fill="#2bd4c6" opacity=".35"/>
  <path d="M300 300c0 28-24 50-54 50-17 0-31-6-43-17 10 32 36 55 73 55 46 0 82-35 82-79 0-28-14-50-38-64 12 14 20 33 20 55z" fill="#8cf7ff" opacity=".44"/>
</svg>
